<?xml version="1.0" encoding="utf-8"?>
<!-- Generator: Adobe Illustrator 19.2.1, SVG Export Plug-In . SVG Version: 6.00 Build 0)  -->
<svg version="1.1" id="E-LOGO-LP-256x80.AI" xmlns="http://www.w3.org/2000/svg" xmlns:xlink="http://www.w3.org/1999/xlink"
	 x="0px" y="0px" width="258px" height="82px" viewBox="0 0 258 82" style="enable-background:new 0 0 258 82;"
	 xml:space="preserve">
<style type="text/css">
	.st0{fill-rule:evenodd;clip-rule:evenodd;fill:#FFFFFF;}
	.st1{fill-rule:evenodd;clip-rule:evenodd;fill:#1EA0E6;}
	.st2{fill-rule:evenodd;clip-rule:evenodd;fill:#F03333;}
	.st3{fill-rule:evenodd;clip-rule:evenodd;fill:none;stroke:#FFFFFF;stroke-miterlimit:10;}
	.st4{fill:#FFFFFF;}
</style>
<g id="E-LOGO-LP-256x80">
	<rect id="Cartouche_blanc_1_" x="1" y="1" class="st0" width="256" height="80"/>
	<rect id="Cartouche_bleu_1_" x="1" y="1" class="st1" width="256" height="74"/>
	<rect id="Filet_rouge_2_" x="1" y="77" class="st2" width="256" height="4"/>
	<rect id="Filet_blanc" x="0.5" y="0.5" class="st3" width="257" height="81"/>
	<g id="Le_Parisien_1_">
		<polygon id="L_1_" class="st0" points="29,73 29,29 37,29 37,67 47,67 47,73 		"/>
		<path id="e_3_" class="st0" d="M60,67.5V73c0,0-1.408,0.2-2.5,0.2c-5.171,0-12.5-3.037-12.5-17.7c0-15.195,6.421-17.7,10.5-17.7
			c3.86,0,9.5,2.988,9.5,10.221c0,8.559-9.077,12.201-12.5,12.465c0.364,5.043,3.096,7.014,5.5,7.014C59.062,67.5,60,67.5,60,67.5z
			 M51.9,55c2.534-0.129,6.2-3.046,6.2-7.585l0,0c0-3.048-1.01-4.415-2.583-4.415C53.51,43,51.9,45.119,51.9,55z"/>
		<path id="P_1_" class="st0" d="M99,31c0,15.995-14,21.781-17,22.631V73h-9V13h6.567C89.173,13,99,17.401,99,31z M90,31
			c0-9.04-4-11.212-8-11.212v26.269C83,45.827,90,41.818,90,31z"/>
		<path id="a_1_" class="st0" d="M117,72.945h-7v-2.603l-3,2.908c-6.25,1.031-12-5.679-12-13.25c0-12.362,11-16.538,14-17v-1.014
			c0-2.318-1.79-2.986-4-2.986c-2.124,0-3.131,0.537-5,1v-6c0,0,2.26-1.25,6-1.25c6.459,0,11,2.513,11,11.32V72.945z M109,49
			c-1.1,0.171-6,3.506-6,11c0,4.789,2.053,7,3.497,7c1.276,0,2.503-1.574,2.503-2.5V49z"/>
		<path id="r_1_" class="st0" d="M136,40c-3.994,0-7,3.286-7,8v25h-8V33h8v3c1-1.005,2.92-3,7-3h1v7H136z"/>
		<path id="i_3_" class="st0" d="M139,29v-8h8v8H139z M147,73V33h-8v40H147L147,73z"/>
		<path id="s_3_" class="st0" d="M169,61.5c0,6.853-5.95,11.75-13.007,11.75c-3.062,0-5.366-0.403-7.493-1.25l3-6
			c1.189,0.54,2.369,0.706,3.729,0.706c2.634,0,4.771-1.82,4.771-4.206c0-2.771-1.117-4.802-4.176-8.269
			C150.556,49.228,149,46.581,149,42.5c0-5.62,5.041-9.75,11.5-9.75c2.973,0,4.716,0.135,6.5,0.75l-3,6
			c-0.848-0.385-1.642-0.5-3-0.5c-1.87,0-3.306,1.385-3.306,3c0,1.54,0.679,3.068,4.081,6.227C166.704,52.69,169,55.882,169,61.5z"
			/>
		<path id="i_2_" class="st0" d="M171,29v-8h8v8H171z M179,33h-8v40h8V33z"/>
		<path id="e_2_" class="st0" d="M203,44c0,9.933-9.548,14.693-13.493,15c0.419,5.853,3.256,8,6.028,8c1.27,0,2.465,0,2.465,0v6
			c0,0-1.877,0.25-3.139,0.25C188.903,73.25,181,70.013,181,53c0-17.633,7.294-20.25,12-20.25C197.451,32.75,203,35.608,203,44
			L203,44z M188.899,53c2.462-0.155,6.2-3.61,6.2-9c0-3.618-0.817-5-2.349-5C190.795,39,188.899,40.25,188.899,53z"/>
		<path id="n_3_" class="st4" d="M215,33c8.219-0.797,14,3.062,14,13.5V73h-8V44c0-2.781-2.045-5-4-5c-2.039,0-4,2.219-4,5v29h-8V33
			h8v2.01L215,33z"/>
	</g>
</g>
</svg>
